<?xml version="1.0" encoding="UTF-8" standalone="no"?>
<!DOCTYPE svg PUBLIC "-//W3C//DTD SVG 1.1//EN" "http://www.w3.org/Graphics/SVG/1.1/DTD/svg11.dtd">
<svg version="1.1" xmlns="http://www.w3.org/2000/svg" xmlns:xlink="http://www.w3.org/1999/xlink" preserveAspectRatio="xMidYMid meet" viewBox="0 0 640 640" width="640" height="640"><defs><path d="M375.25 199.31C379.19 197.78 383.62 199.72 385.16 203.66C403.31 250.21 455.01 382.75 473.17 429.31C474.7 433.24 472.76 437.67 468.83 439.21C448.88 446.99 396.17 467.55 376.23 475.33C372.29 476.86 367.86 474.92 366.33 470.98C348.17 424.43 296.47 291.89 278.31 245.33C276.78 241.4 278.72 236.97 282.66 235.43C302.6 227.65 355.31 207.09 375.25 199.31Z" id="fS7SS39Ij"></path><path d="M387.36 209.3C404.07 252.14 393.69 296.25 364.21 307.75C334.72 319.25 297.22 293.81 280.51 250.98C263.8 208.14 274.18 164.03 303.66 152.53C333.15 141.03 370.65 166.47 387.36 209.3Z" id="g4gQXpnNh2"></path><path d="M294.29 60.47C297.72 59.13 301.57 60.83 302.91 64.25C317 100.37 356.85 202.54 370.94 238.66C372.27 242.09 370.58 245.94 367.16 247.28C356.71 251.36 331.54 261.17 321.09 265.25C317.67 266.58 313.81 264.89 312.48 261.47C298.39 225.34 258.53 123.17 244.45 87.05C243.11 83.63 244.8 79.77 248.23 78.44C258.68 74.36 283.84 64.55 294.29 60.47Z" id="b2ZJmcIFTm"></path><path d="M382.53 217.84C386.48 216.33 390.9 218.3 392.41 222.25C406.45 258.96 445.84 361.95 459.89 398.66C461.39 402.6 459.42 407.02 455.48 408.53C437.64 415.35 391.26 433.09 373.42 439.92C369.48 441.42 365.06 439.45 363.55 435.51C349.51 398.8 310.11 295.81 296.07 259.1C294.56 255.15 296.54 250.73 300.48 249.22C318.32 242.4 364.69 224.66 382.53 217.84Z" id="b25YFfWqR"></path><path d="M440.99 389.25L436.71 398.99L419.31 391.36L411.68 408.76L401.94 404.48L409.57 387.08L392.17 379.45L396.45 369.7L413.85 377.34L421.48 359.94L431.22 364.22L423.59 381.61L423.59 381.61L440.99 389.25ZM410.9 312.12L406.93 321.19L415.99 325.17L408.36 342.56L425.76 350.2L421.48 359.94L404.08 352.31L396.45 369.7L386.7 365.43L394.34 348.03L376.94 340.4L380.92 331.33L371.85 327.35L379.49 309.96L362.09 302.32L366.37 292.58L383.76 300.21L391.4 282.82L401.14 287.09L393.51 304.49L393.51 304.49L410.9 312.12ZM405.95 321.57L389.23 314.23L381.9 330.95L398.61 338.29L398.61 338.29L405.95 321.57ZM395.67 273.07L391.4 282.82L374 275.18L366.37 292.58L356.62 288.3L364.26 270.91L346.86 263.27L351.13 253.53L368.53 261.16L376.17 243.76L385.91 248.04L378.27 265.44L378.27 265.44L395.67 273.07Z" id="apDhwHwNB"></path><path d="M370.72 450.64C365.38 474.09 315.41 482.73 259.21 469.93C203.01 457.12 161.72 427.68 167.06 404.23C172.41 380.78 222.37 372.14 278.58 384.94C334.78 397.75 376.07 427.19 370.72 450.64Z" id="dqXklwOIW"></path><path d="M423.65 416.8L422.06 419.97L420.25 423.04L418.23 426.01L416 428.89L413.58 431.67L410.95 434.34L408.14 436.91L405.15 439.38L401.97 441.73L398.62 443.98L395.1 446.12L391.42 448.15L387.58 450.07L383.59 451.87L379.46 453.55L375.18 455.12L370.76 456.56L366.21 457.88L361.54 459.08L356.75 460.16L351.84 461.11L346.82 461.93L341.7 462.62L336.47 463.18L331.16 463.61L325.75 463.9L320.27 464.05L314.7 464.07L309.06 463.95L303.36 463.68L297.59 463.28L291.77 462.73L285.89 462.03L279.97 461.18L274.01 460.19L268.01 459.04L261.99 457.74L255.99 456.3L250.09 454.74L244.29 453.05L238.59 451.25L232.99 449.33L227.5 447.31L222.13 445.17L216.87 442.94L211.74 440.61L206.73 438.18L201.85 435.66L197.1 433.06L192.5 430.37L188.03 427.61L183.72 424.76L179.55 421.85L175.54 418.87L171.68 415.82L167.99 412.72L164.46 409.55L161.11 406.34L157.93 403.07L154.93 399.76L152.11 396.41L149.48 393.02L147.05 389.6L144.8 386.15L142.76 382.67L140.92 379.17L139.29 375.65L137.87 372.11L136.66 368.57L135.68 365.01L134.91 361.46L134.38 357.9L134.08 354.35L134.02 350.8L134.19 347.27L134.61 343.75L135.28 340.26L146.69 290.19L175.29 296.71L178.77 295.14L182.91 293.45L187.19 291.89L191.61 290.44L196.15 289.12L200.83 287.92L205.62 286.84L210.53 285.89L215.55 285.07L220.67 284.38L225.89 283.82L231.21 283.4L236.61 283.11L242.1 282.95L247.67 282.93L253.3 283.06L259.01 283.32L264.78 283.73L270.6 284.28L276.47 284.98L282.39 285.82L288.36 286.82L294.35 287.96L300.38 289.26L306.37 290.7L312.27 292.27L318.08 293.95L323.78 295.75L329.38 297.67L334.86 299.7L340.24 301.83L345.49 304.06L350.63 306.4L355.64 308.82L360.52 311.34L365.26 313.94L369.87 316.63L374.33 319.4L378.65 322.24L382.82 325.15L386.83 328.14L390.68 331.18L394.38 334.29L397.9 337.45L401.25 340.67L404.43 343.93L407.43 347.24L409.89 350.16L438.49 356.68L427.08 406.75L426.17 410.19L425.03 413.54L423.65 416.8Z" id="dfjFt4cuz"></path><clipPath id="clipaNfeOjEc9"><use xlink:href="#dfjFt4cuz" opacity="1"></use></clipPath><path d="M438.49 356.68C434.19 375.54 365.33 375.96 284.8 357.61C204.28 339.26 142.39 309.05 146.69 290.19C150.99 271.33 219.85 270.91 300.38 289.26C380.9 307.61 442.79 337.82 438.49 356.68Z" id="c1cGlXpXmA"></path><mask id="maskaEIHcOlt" x="140.48" y="269.77" width="304.22" height="107.33" maskUnits="userSpaceOnUse"><rect x="140.48" y="269.77" width="304.22" height="107.33" fill="white"></rect><use xlink:href="#c1cGlXpXmA" opacity="1" fill="black"></use></mask><path d="M347.51 4.53L358.7 5.67L369.75 7.25L380.66 9.25L391.42 11.68L402.01 14.52L412.44 17.77L422.68 21.41L432.74 25.43L442.6 29.83L452.25 34.6L461.68 39.73L470.9 45.21L479.87 51.03L488.61 57.18L497.09 63.66L505.32 70.44L513.27 77.54L520.95 84.93L528.34 92.6L535.43 100.56L542.22 108.78L548.7 117.27L554.85 126L560.67 134.98L566.14 144.19L571.27 153.63L576.04 163.28L580.44 173.14L584.47 183.19L588.11 193.44L591.35 203.86L594.2 214.46L596.62 225.21L598.63 236.12L600.21 247.18L601.35 258.37L602.03 269.68L602.27 281.11L602.03 292.54L601.35 303.86L600.21 315.04L598.63 326.1L596.62 337.01L594.2 347.76L591.35 358.36L588.11 368.78L584.47 379.03L580.44 389.08L576.04 398.94L571.27 408.59L566.14 418.03L560.67 427.24L554.85 436.22L548.7 444.95L542.22 453.44L535.43 461.66L528.34 469.62L520.95 477.29L513.27 484.68L505.32 491.78L497.09 498.57L488.61 505.04L479.87 511.19L470.9 517.01L461.68 522.49L452.25 527.62L442.6 532.39L432.74 536.79L422.68 540.81L414.01 543.9L383.27 577L324.76 640L266.26 577L235.52 543.9L226.85 540.81L216.79 536.79L206.94 532.39L197.28 527.62L187.85 522.49L178.64 517.01L169.66 511.19L160.92 505.04L152.44 498.57L144.21 491.78L136.26 484.68L128.58 477.29L121.19 469.62L114.1 461.66L107.31 453.44L100.84 444.95L94.69 436.22L88.87 427.24L83.39 418.03L78.26 408.59L73.49 398.94L69.09 389.08L65.06 379.03L61.42 368.78L58.18 358.36L55.34 347.76L52.91 337.01L50.9 326.1L49.32 315.04L48.19 303.86L47.5 292.54L47.27 281.11L47.5 269.68L48.19 258.37L49.32 247.18L50.9 236.12L52.91 225.21L55.34 214.46L58.18 203.86L61.42 193.44L65.06 183.19L69.09 173.14L73.49 163.28L78.26 153.63L83.39 144.19L88.87 134.98L94.69 126L100.84 117.27L107.31 108.78L114.1 100.56L121.19 92.6L128.58 84.93L136.26 77.54L144.21 70.44L152.44 63.66L160.92 57.18L169.66 51.03L178.64 45.21L187.85 39.73L197.28 34.6L206.94 29.83L216.79 25.43L226.85 21.41L237.09 17.77L247.52 14.52L258.11 11.68L268.87 9.25L279.78 7.25L290.83 5.67L302.02 4.53L313.34 3.84L324.77 3.61L336.2 3.84L347.51 4.53ZM306.04 53.37L296.82 54.31L287.72 55.6L278.74 57.26L269.88 59.26L261.16 61.6L252.58 64.27L244.14 67.27L235.86 70.58L227.74 74.2L219.79 78.13L212.02 82.35L204.44 86.87L197.05 91.66L189.85 96.72L182.87 102.05L176.1 107.64L169.55 113.48L163.22 119.57L157.14 125.89L151.3 132.44L145.71 139.21L140.38 146.2L135.31 153.39L130.52 160.78L126.01 168.37L121.79 176.14L117.86 184.09L114.24 192.2L110.92 200.48L107.92 208.92L105.25 217.5L102.91 226.23L100.91 235.08L99.26 244.07L97.96 253.17L97.02 262.38L96.46 271.7L96.27 281.11L96.46 290.52L97.02 299.84L97.96 309.05L99.26 318.15L100.91 327.14L102.91 335.99L105.25 344.72L107.92 353.3L110.92 361.74L114.24 370.02L117.86 378.14L121.79 386.08L126.01 393.85L130.52 401.44L135.31 408.83L140.38 416.02L145.71 423.01L151.3 429.78L157.14 436.33L163.22 442.65L169.55 448.74L176.1 454.58L182.87 460.17L189.85 465.5L197.05 470.56L204.44 475.36L212.02 479.87L219.79 484.09L227.74 488.02L235.86 491.64L244.14 494.96L252.58 497.95L261.16 500.63L269.88 502.97L278.74 504.97L287.72 506.62L296.82 507.92L306.04 508.85L315.35 509.42L324.77 509.61L334.18 509.42L343.5 508.85L352.71 507.92L361.81 506.62L370.79 504.97L379.65 502.97L388.37 500.63L396.96 497.95L405.39 494.96L413.67 491.64L421.79 488.02L429.74 484.09L437.51 479.87L445.09 475.36L452.49 470.56L459.68 465.5L466.67 460.17L473.44 454.58L479.99 448.74L486.31 442.65L492.39 436.33L498.23 429.78L503.82 423.01L509.15 416.02L514.22 408.83L519.01 401.44L523.52 393.85L527.75 386.08L531.67 378.14L535.3 370.02L538.61 361.74L541.61 353.3L544.28 344.72L546.62 335.99L548.62 327.14L550.27 318.15L551.57 309.05L552.51 299.84L553.08 290.52L553.27 281.11L553.08 271.7L552.51 262.38L551.57 253.17L550.27 244.07L548.62 235.08L546.62 226.23L544.28 217.5L541.61 208.92L538.61 200.48L535.3 192.2L531.67 184.09L527.75 176.14L523.52 168.37L519.01 160.78L514.22 153.39L509.15 146.2L503.82 139.21L498.23 132.44L492.39 125.89L486.31 119.57L479.99 113.48L473.44 107.64L466.67 102.05L459.68 96.72L452.49 91.66L445.09 86.87L437.51 82.35L429.74 78.13L421.79 74.2L413.67 70.58L405.39 67.27L396.96 64.27L388.37 61.6L379.65 59.26L370.79 57.26L361.81 55.6L352.71 54.31L343.5 53.37L334.18 52.8L324.77 52.61L315.35 52.8L306.04 53.37Z" id="c2U0lXIFkh"></path></defs><g><g><g><g><use xlink:href="#fS7SS39Ij" opacity="1" fill="#15c600" fill-opacity="1"></use><g><use xlink:href="#fS7SS39Ij" opacity="1" fill-opacity="0" stroke="#000000" stroke-width="0" stroke-opacity="1"></use></g></g><g><use xlink:href="#g4gQXpnNh2" opacity="1" fill="#15c600" fill-opacity="1"></use></g><g><use xlink:href="#b2ZJmcIFTm" opacity="1" fill="#15c600" fill-opacity="1"></use></g><g><use xlink:href="#b25YFfWqR" opacity="1" fill="#ff0f00" fill-opacity="1"></use></g><g><use xlink:href="#apDhwHwNB" opacity="1" fill="#ffffff" fill-opacity="1"></use></g></g><g><g><use xlink:href="#dqXklwOIW" opacity="1" fill="#000000" fill-opacity="1"></use><g><use xlink:href="#dqXklwOIW" opacity="1" fill-opacity="0" stroke="#095534" stroke-width="0" stroke-opacity="1"></use></g></g><g><use xlink:href="#dfjFt4cuz" opacity="1" fill="#000000" fill-opacity="1"></use><g clip-path="url(#clipaNfeOjEc9)"><use xlink:href="#dfjFt4cuz" opacity="1" fill-opacity="0" stroke="#ffffff" stroke-width="6" stroke-opacity="1"></use></g></g><g><use xlink:href="#c1cGlXpXmA" opacity="1" fill="#fe3333" fill-opacity="1"></use><g mask="url(#maskaEIHcOlt)"><use xlink:href="#c1cGlXpXmA" opacity="1" fill-opacity="0" stroke="#ffffff" stroke-width="6" stroke-opacity="1"></use></g></g></g><g><use xlink:href="#c2U0lXIFkh" opacity="1" fill="#000000" fill-opacity="1"></use></g></g></g></svg>