<?xml version="1.0" encoding="UTF-8" standalone="no"?>
<!DOCTYPE svg PUBLIC "-//W3C//DTD SVG 1.1//EN" "http://www.w3.org/Graphics/SVG/1.1/DTD/svg11.dtd">
<svg version="1.1" xmlns="http://www.w3.org/2000/svg" xmlns:xlink="http://www.w3.org/1999/xlink" preserveAspectRatio="xMidYMid meet" viewBox="0 0 640 640" width="640" height="640"><defs><path d="M347.51 4.53L358.7 5.67L369.75 7.25L380.66 9.25L391.42 11.68L402.01 14.52L412.44 17.77L422.68 21.41L432.74 25.43L442.6 29.83L452.25 34.6L461.68 39.73L470.9 45.21L479.87 51.03L488.61 57.18L497.09 63.66L505.32 70.44L513.27 77.54L520.95 84.93L528.34 92.6L535.43 100.56L542.22 108.78L548.7 117.27L554.85 126L560.67 134.98L566.14 144.19L571.27 153.63L576.04 163.28L580.44 173.14L584.47 183.19L588.11 193.44L591.35 203.86L594.2 214.46L596.62 225.21L598.63 236.12L600.21 247.18L601.35 258.37L602.03 269.68L602.27 281.11L602.03 292.54L601.35 303.86L600.21 315.04L598.63 326.1L596.62 337.01L594.2 347.76L591.35 358.36L588.11 368.78L584.47 379.03L580.44 389.08L576.04 398.94L571.27 408.59L566.14 418.03L560.67 427.24L554.85 436.22L548.7 444.95L542.22 453.44L535.43 461.66L528.34 469.62L520.95 477.29L513.27 484.68L505.32 491.78L497.09 498.57L488.61 505.04L479.87 511.19L470.9 517.01L461.68 522.49L452.25 527.62L442.6 532.39L432.74 536.79L422.68 540.81L414.01 543.9L383.27 577L324.76 640L266.26 577L235.52 543.9L226.85 540.81L216.79 536.79L206.94 532.39L197.28 527.62L187.85 522.49L178.64 517.01L169.66 511.19L160.92 505.04L152.44 498.57L144.21 491.78L136.26 484.68L128.58 477.29L121.19 469.62L114.1 461.66L107.31 453.44L100.84 444.95L94.69 436.22L88.87 427.24L83.39 418.03L78.26 408.59L73.49 398.94L69.09 389.08L65.06 379.03L61.42 368.78L58.18 358.36L55.34 347.76L52.91 337.01L50.9 326.1L49.32 315.04L48.19 303.86L47.5 292.54L47.27 281.11L47.5 269.68L48.19 258.37L49.32 247.18L50.9 236.12L52.91 225.21L55.34 214.46L58.18 203.86L61.42 193.44L65.06 183.19L69.09 173.14L73.49 163.28L78.26 153.63L83.39 144.19L88.87 134.98L94.69 126L100.84 117.27L107.31 108.78L114.1 100.56L121.19 92.6L128.58 84.93L136.26 77.54L144.21 70.44L152.44 63.66L160.92 57.18L169.66 51.03L178.64 45.21L187.85 39.73L197.28 34.6L206.94 29.83L216.79 25.43L226.85 21.41L237.09 17.77L247.52 14.52L258.11 11.68L268.87 9.25L279.78 7.25L290.83 5.67L302.02 4.53L313.34 3.84L324.77 3.61L336.2 3.84L347.51 4.53ZM306.04 53.37L296.82 54.31L287.72 55.6L278.74 57.26L269.88 59.26L261.16 61.6L252.58 64.27L244.14 67.27L235.86 70.58L227.74 74.2L219.79 78.13L212.02 82.35L204.44 86.87L197.05 91.66L189.85 96.72L182.87 102.05L176.1 107.64L169.55 113.48L163.22 119.57L157.14 125.89L151.3 132.44L145.71 139.21L140.38 146.2L135.31 153.39L130.52 160.78L126.01 168.37L121.79 176.14L117.86 184.09L114.24 192.2L110.92 200.48L107.92 208.92L105.25 217.5L102.91 226.23L100.91 235.08L99.26 244.07L97.96 253.17L97.02 262.38L96.46 271.7L96.27 281.11L96.46 290.52L97.02 299.84L97.96 309.05L99.26 318.15L100.91 327.14L102.91 335.99L105.25 344.72L107.92 353.3L110.92 361.74L114.24 370.02L117.86 378.14L121.79 386.08L126.01 393.85L130.52 401.44L135.31 408.83L140.38 416.02L145.71 423.01L151.3 429.78L157.14 436.33L163.22 442.65L169.55 448.74L176.1 454.58L182.87 460.17L189.85 465.5L197.05 470.56L204.44 475.36L212.02 479.87L219.79 484.09L227.74 488.02L235.86 491.64L244.14 494.96L252.58 497.95L261.16 500.63L269.88 502.97L278.74 504.97L287.72 506.62L296.82 507.92L306.04 508.85L315.35 509.42L324.77 509.61L334.18 509.42L343.5 508.85L352.71 507.92L361.81 506.62L370.79 504.97L379.65 502.97L388.37 500.63L396.96 497.95L405.39 494.96L413.67 491.64L421.79 488.02L429.74 484.09L437.51 479.87L445.09 475.36L452.49 470.56L459.68 465.5L466.67 460.17L473.44 454.58L479.99 448.74L486.31 442.65L492.39 436.33L498.23 429.78L503.82 423.01L509.15 416.02L514.22 408.83L519.01 401.44L523.52 393.85L527.75 386.08L531.67 378.14L535.3 370.02L538.61 361.74L541.61 353.3L544.28 344.72L546.62 335.99L548.62 327.14L550.27 318.15L551.57 309.05L552.51 299.84L553.08 290.52L553.27 281.11L553.08 271.7L552.51 262.38L551.57 253.17L550.27 244.07L548.62 235.08L546.62 226.23L544.28 217.5L541.61 208.92L538.61 200.48L535.3 192.2L531.67 184.09L527.75 176.14L523.52 168.37L519.01 160.78L514.22 153.39L509.15 146.2L503.82 139.21L498.23 132.44L492.39 125.89L486.31 119.57L479.99 113.48L473.44 107.64L466.67 102.05L459.68 96.72L452.49 91.66L445.09 86.87L437.51 82.35L429.74 78.13L421.79 74.2L413.67 70.58L405.39 67.27L396.96 64.27L388.37 61.6L379.65 59.26L370.79 57.26L361.81 55.6L352.71 54.31L343.5 53.37L334.18 52.8L324.77 52.61L315.35 52.8L306.04 53.37Z" id="c3guBAG18N"></path><path d="M449.87 359.02C449.87 387.83 393.81 411.23 324.77 411.23C255.72 411.23 199.67 387.83 199.67 359.02C199.67 330.21 255.72 306.82 324.77 306.82C393.81 306.82 449.87 330.21 449.87 359.02Z" id="a7z87ZuuM"></path><path d="M502.68 305.42L501.66 309.54L500.37 313.61L498.8 317.62L496.96 321.57L494.87 325.46L492.52 329.28L489.92 333.03L487.07 336.71L483.99 340.31L480.68 343.83L477.14 347.26L473.38 350.61L469.41 353.87L465.23 357.03L460.84 360.1L456.26 363.07L451.49 365.93L446.53 368.68L441.39 371.33L436.08 373.86L430.6 376.28L424.96 378.57L419.16 380.74L413.21 382.78L407.11 384.7L400.88 386.48L394.51 388.12L388.01 389.62L381.4 390.98L374.66 392.19L367.82 393.25L360.87 394.15L353.82 394.9L346.69 395.49L339.46 395.91L332.15 396.17L324.77 396.26L317.38 396.17L310.07 395.91L302.85 395.49L295.71 394.9L288.66 394.15L281.71 393.25L274.87 392.19L268.14 390.98L261.52 389.62L255.02 388.12L248.66 386.48L242.42 384.7L236.33 382.78L230.38 380.74L224.58 378.57L218.94 376.28L213.45 373.86L208.14 371.33L203 368.68L198.05 365.93L193.27 363.07L188.69 360.1L184.31 357.03L180.12 353.87L176.15 350.61L172.39 347.26L168.85 343.83L165.54 340.31L162.46 336.71L159.62 333.03L157.02 329.28L154.67 325.46L152.57 321.57L150.73 317.62L149.17 313.61L147.87 309.54L146.85 305.42L146.12 301.25L145.67 297.03L145.52 292.76L145.52 231.25L180.66 231.25L184.31 228.49L188.69 225.43L193.27 222.46L198.05 219.6L203 216.84L208.14 214.2L213.45 211.66L218.94 209.25L224.58 206.96L230.38 204.79L236.33 202.74L242.42 200.83L248.66 199.05L255.02 197.41L261.52 195.91L268.14 194.55L274.87 193.34L281.71 192.28L288.66 191.38L295.71 190.63L302.85 190.04L310.07 189.61L317.38 189.36L324.77 189.27L332.15 189.36L339.46 189.61L346.69 190.04L353.82 190.63L360.87 191.38L367.82 192.28L374.66 193.34L381.4 194.55L388.01 195.91L394.51 197.41L400.88 199.05L407.11 200.83L413.21 202.74L419.16 204.79L424.96 206.96L430.6 209.25L436.08 211.66L441.39 214.2L446.53 216.84L451.49 219.6L456.26 222.46L460.84 225.43L465.23 228.49L468.87 231.25L504.01 231.25L504.01 292.76L503.86 297.03L503.42 301.25L502.68 305.42Z" id="gee77VALC"></path><clipPath id="clipc1o3PVUVi"><use xlink:href="#gee77VALC" opacity="1"></use></clipPath><path d="M504.01 231.25C504.01 254.42 423.69 273.24 324.77 273.24C225.84 273.24 145.52 254.42 145.52 231.25C145.52 208.08 225.84 189.27 324.77 189.27C423.69 189.27 504.01 208.08 504.01 231.25Z" id="obWY5Jh7N"></path><mask id="maskanHVYUc5x" x="139.52" y="183.27" width="370.49" height="95.96" maskUnits="userSpaceOnUse"><rect x="139.52" y="183.27" width="370.49" height="95.96" fill="white"></rect><use xlink:href="#obWY5Jh7N" opacity="1" fill="black"></use></mask><path d="M873.87 222.38C878.38 222.38 882.04 226.03 882.04 230.54C882.04 283.89 882.04 435.79 882.04 489.15C882.04 493.66 878.38 497.31 873.87 497.31C851.02 497.31 790.61 497.31 767.75 497.31C763.24 497.31 759.59 493.66 759.59 489.15C759.59 435.79 759.59 283.89 759.59 230.54C759.59 226.03 763.24 222.38 767.75 222.38C790.61 222.38 851.02 222.38 873.87 222.38Z" id="bcpvNSbUw"></path><path d="M882.04 237.01C882.04 286.1 854.6 325.96 820.81 325.96C787.02 325.96 759.59 286.1 759.59 237.01C759.59 187.92 787.02 148.06 820.81 148.06C854.6 148.06 882.04 187.92 882.04 237.01Z" id="a22WX5xpZ"></path><path d="M847.21 52.85C851.13 52.85 854.31 56.03 854.31 59.96C854.31 101.35 854.31 218.45 854.31 259.85C854.31 263.77 851.13 266.95 847.21 266.95C835.23 266.95 806.39 266.95 794.41 266.95C790.49 266.95 787.31 263.77 787.31 259.85C787.31 218.45 787.31 101.35 787.31 59.96C787.31 56.03 790.49 52.85 794.41 52.85C806.39 52.85 835.23 52.85 847.21 52.85Z" id="elleDXpRQ"></path><path d="M873.93 243.63C878.44 243.66 882.07 247.34 882.04 251.84C881.76 293.81 880.99 411.54 880.71 453.5C880.68 458.01 877.01 461.64 872.5 461.61C852.11 461.48 799.09 461.13 778.7 461C774.19 460.97 770.56 457.29 770.59 452.78C770.86 410.82 771.64 293.09 771.91 251.12C771.94 246.61 775.62 242.98 780.13 243.01C800.52 243.15 853.53 243.49 873.93 243.63Z" id="avzfE42X"></path><path d="M865.57 436.81L857.53 444.85L843.19 430.5L828.85 444.85L820.81 436.81L835.16 422.47L820.81 408.12L828.85 400.09L843.19 414.44L857.53 400.09L865.57 408.12L851.22 422.47L851.22 422.47L865.57 436.81ZM865.57 348.42L858.09 355.9L865.57 363.37L851.22 377.71L865.57 392.06L857.53 400.09L843.19 385.75L828.85 400.09L820.81 392.06L835.16 377.71L820.81 363.37L828.29 355.9L820.81 348.42L835.16 334.08L820.81 319.73L828.85 311.7L843.19 326.05L857.53 311.7L865.57 319.73L851.22 334.08L851.22 334.08L865.57 348.42ZM856.97 355.9L843.19 342.11L829.41 355.9L843.19 369.68L843.19 369.68L856.97 355.9ZM865.57 303.67L857.53 311.7L843.19 297.36L828.85 311.7L820.81 303.67L835.16 289.32L820.81 274.98L828.85 266.95L843.19 281.29L857.53 266.95L865.57 274.98L851.22 289.32L851.22 289.32L865.57 303.67Z" id="iHKYUoOR7"></path></defs><g><g><g><use xlink:href="#c3guBAG18N" opacity="1" fill="#000000" fill-opacity="1"></use></g><g><use xlink:href="#a7z87ZuuM" opacity="1" fill="#000000" fill-opacity="1"></use><g><use xlink:href="#a7z87ZuuM" opacity="1" fill-opacity="0" stroke="#095534" stroke-width="0" stroke-opacity="1"></use></g></g><g><use xlink:href="#gee77VALC" opacity="1" fill="#000000" fill-opacity="1"></use><g clip-path="url(#clipc1o3PVUVi)"><use xlink:href="#gee77VALC" opacity="1" fill-opacity="0" stroke="#ffffff" stroke-width="6" stroke-opacity="1"></use></g></g><g><use xlink:href="#obWY5Jh7N" opacity="1" fill="#fe3333" fill-opacity="1"></use><g mask="url(#maskanHVYUc5x)"><use xlink:href="#obWY5Jh7N" opacity="1" fill-opacity="0" stroke="#ffffff" stroke-width="6" stroke-opacity="1"></use></g></g><g><use xlink:href="#bcpvNSbUw" opacity="1" fill="#15c600" fill-opacity="1"></use><g><use xlink:href="#bcpvNSbUw" opacity="1" fill-opacity="0" stroke="#000000" stroke-width="0" stroke-opacity="1"></use></g></g><g><use xlink:href="#a22WX5xpZ" opacity="1" fill="#15c600" fill-opacity="1"></use></g><g><use xlink:href="#elleDXpRQ" opacity="1" fill="#15c600" fill-opacity="1"></use></g><g><use xlink:href="#avzfE42X" opacity="1" fill="#ff0f00" fill-opacity="1"></use></g><g><use xlink:href="#iHKYUoOR7" opacity="1" fill="#ffffff" fill-opacity="1"></use></g></g></g></svg>