<svg width="2481.0000000000005" height="2073" xmlns="http://www.w3.org/2000/svg">
 <title>map marker checkmark</title>

 <g>
  <title>Layer 1</title>
  <g id="svg_1" externalResourcesRequired="false">
   <path fill-rule="evenodd" clip-rule="evenodd" fill="#b2b2b2" stroke="#000000" stroke-width="37" stroke-miterlimit="10" d="m730.94,1839.62903c-38.76599,-190.30103 -107.11596,-348.66504 -189.90301,-495.43994c-61.40698,-108.87207 -132.54398,-209.36304 -198.36399,-314.93799c-21.97201,-35.24408 -40.93399,-72.47705 -62.04699,-109.05408c-42.21601,-73.13696 -76.444,-157.935 -74.269,-267.932c2.125,-107.47297 33.20799,-193.68399 78.02998,-264.172c73.71903,-115.93497 197.20102,-210.98898 362.88401,-235.96898c135.466,-20.424 262.47503,14.082 352.54303,66.748c73.60003,43.03799 130.59601,100.52701 173.91998,168.28c45.21997,70.716 76.35901,154.26001 78.97095,263.23199c1.33703,55.83002 -7.80493,107.53199 -20.68396,150.41797c-13.03394,43.40906 -33.99597,79.69501 -52.646,118.45404c-36.406,75.659 -82.04895,144.982 -127.85498,214.34601c-136.43701,206.60596 -264.49603,417.30994 -320.58002,706.02698z" id="svg_2"/>
   <path opacity="0.09" fill-rule="evenodd" clip-rule="evenodd" d="m731.37903,1934.40698c131.604,-120.86401 211.31396,-235.97705 269.138,-350.48999c42.89203,-84.94202 70.54205,-169.16601 106.95294,-254.06103c12.15601,-28.33997 28.50806,-56.568 42.51904,-85.29993c28.01807,-57.4491 72.65698,-118.13306 169.03003,-178.09607c94.16004,-58.58795 193.95496,-93.75598 291.57996,-114.69696c160.56506,-34.44202 344.27698,-37.29901 502.59289,15.59302c129.4441,43.24597 204.67408,113.46893 233.77808,178.86298c23.78296,53.43798 21.42798,108.18505 -1.04492,163.10302c-23.45508,57.31995 -69.56812,116.06494 -161.10498,177.39099c-46.89795,31.417 -98.90015,56.33301 -146.41211,74.86805c-48.08789,18.76098 -96.59998,30.39196 -145.328,44.31994c-95.1189,27.18799 -192.41993,47.15296 -289.89099,67.07605c-290.323,59.33899 -577.25098,124.32092 -871.80994,261.42993z" id="svg_3"/>
   <circle fill-rule="evenodd" clip-rule="evenodd" cx="729.546" cy="651.047" r="183.333" id="svg_4"/>
  </g>
  <path id="svg_7" d="m1106.12985,545.14189c-131.21343,0 -237.49631,-106.28288 -237.49631,-237.49631c0,-131.21343 106.28288,-237.49631 237.49631,-237.49631c131.21343,0 237.49631,106.28288 237.49631,237.49631c0,131.21343 -106.28288,237.49631 -237.49631,237.49631z" opacity="undefined" stroke-width="37" stroke="#000000" fill="#b2b2b2"/>
  <g id="svg_42">
   <line stroke="#000000" id="svg_37" y2="214.71791" x2="1236.24201" y1="416.68756" x1="1045.16345" stroke-width="85" fill="none"/>
   <line stroke="#000000" id="svg_38" y2="284.33398" x2="962.12703" y1="405.81855" x1="1096.32132" stroke-width="85" fill="none"/>
  </g>
 </g>
</svg>