<?xml version="1.0" encoding="UTF-8"?>
<svg xmlns="http://www.w3.org/2000/svg" xmlns:xlink="http://www.w3.org/1999/xlink" width="152px" height="80px" viewBox="0 0 152 80" version="1.1">
<g id="surface1">
<rect x="0" y="0" width="152" height="80" style="fill:rgb(69.803922%,13.333333%,20.392157%);fill-opacity:1;stroke:none;"/>
<path style="fill-rule:nonzero;fill:rgb(0%,0%,0%);fill-opacity:1;stroke-width:300;stroke-linecap:butt;stroke-linejoin:miter;stroke:rgb(100%,100%,100%);stroke-opacity:1;stroke-miterlimit:4;" d="M 0 449.985352 L 7410 449.985352 M 7410 1050.029297 L 0 1050.029297 M 0 1650.073242 L 7410 1650.073242 M 7410 2249.926758 L 0 2249.926758 M 0 2849.970703 L 7410 2849.970703 M 7410 3450.014648 L 0 3450.014648 " transform="matrix(0.0205128,0,0,0.0205128,0,0)"/>
<path style=" stroke:none;fill-rule:nonzero;fill:rgb(23.529412%,23.137255%,43.137255%);fill-opacity:1;" d="M 0 0 L 60.800781 0 L 60.800781 43.078125 L 0 43.078125 Z M 0 0 "/>
<path style=" stroke:none;fill-rule:nonzero;fill:rgb(100%,100%,100%);fill-opacity:1;" d="M 5.066406 1.847656 L 6.511719 6.300781 L 2.726562 3.546875 L 7.40625 3.546875 L 3.621094 6.300781 Z M 5.066406 1.847656 "/>
<path style=" stroke:none;fill-rule:nonzero;fill:rgb(100%,100%,100%);fill-opacity:1;" d="M 5.066406 10.460938 L 6.511719 14.914062 L 2.726562 12.164062 L 7.40625 12.164062 L 3.621094 14.914062 Z M 5.066406 10.460938 "/>
<path style=" stroke:none;fill-rule:nonzero;fill:rgb(100%,100%,100%);fill-opacity:1;" d="M 5.066406 19.078125 L 6.511719 23.53125 L 2.726562 20.777344 L 7.40625 20.777344 L 3.621094 23.53125 Z M 5.066406 19.078125 "/>
<path style=" stroke:none;fill-rule:nonzero;fill:rgb(100%,100%,100%);fill-opacity:1;" d="M 5.066406 27.691406 L 6.511719 32.144531 L 2.726562 29.394531 L 7.40625 29.394531 L 3.621094 32.144531 Z M 5.066406 27.691406 "/>
<path style=" stroke:none;fill-rule:nonzero;fill:rgb(100%,100%,100%);fill-opacity:1;" d="M 5.066406 36.308594 L 6.511719 40.761719 L 2.726562 38.007812 L 7.40625 38.007812 L 3.621094 40.761719 Z M 5.066406 36.308594 "/>
<path style=" stroke:none;fill-rule:nonzero;fill:rgb(100%,100%,100%);fill-opacity:1;" d="M 10.132812 6.152344 L 11.582031 10.605469 L 7.792969 7.855469 L 12.472656 7.855469 L 8.6875 10.605469 Z M 10.132812 6.152344 "/>
<path style=" stroke:none;fill-rule:nonzero;fill:rgb(100%,100%,100%);fill-opacity:1;" d="M 10.132812 14.769531 L 11.582031 19.222656 L 7.792969 16.46875 L 12.472656 16.46875 L 8.6875 19.222656 Z M 10.132812 14.769531 "/>
<path style=" stroke:none;fill-rule:nonzero;fill:rgb(100%,100%,100%);fill-opacity:1;" d="M 10.132812 23.382812 L 11.582031 27.835938 L 7.792969 25.085938 L 12.472656 25.085938 L 8.6875 27.835938 Z M 10.132812 23.382812 "/>
<path style=" stroke:none;fill-rule:nonzero;fill:rgb(100%,100%,100%);fill-opacity:1;" d="M 10.132812 32 L 11.582031 36.453125 L 7.792969 33.699219 L 12.472656 33.699219 L 8.6875 36.453125 Z M 10.132812 32 "/>
<path style=" stroke:none;fill-rule:nonzero;fill:rgb(100%,100%,100%);fill-opacity:1;" d="M 15.199219 1.847656 L 16.648438 6.300781 L 12.859375 3.546875 L 17.542969 3.546875 L 13.753906 6.300781 Z M 15.199219 1.847656 "/>
<path style=" stroke:none;fill-rule:nonzero;fill:rgb(100%,100%,100%);fill-opacity:1;" d="M 15.199219 10.460938 L 16.648438 14.914062 L 12.859375 12.164062 L 17.542969 12.164062 L 13.753906 14.914062 Z M 15.199219 10.460938 "/>
<path style=" stroke:none;fill-rule:nonzero;fill:rgb(100%,100%,100%);fill-opacity:1;" d="M 15.199219 19.078125 L 16.648438 23.53125 L 12.859375 20.777344 L 17.542969 20.777344 L 13.753906 23.53125 Z M 15.199219 19.078125 "/>
<path style=" stroke:none;fill-rule:nonzero;fill:rgb(100%,100%,100%);fill-opacity:1;" d="M 15.199219 27.691406 L 16.648438 32.144531 L 12.859375 29.394531 L 17.542969 29.394531 L 13.753906 32.144531 Z M 15.199219 27.691406 "/>
<path style=" stroke:none;fill-rule:nonzero;fill:rgb(100%,100%,100%);fill-opacity:1;" d="M 15.199219 36.308594 L 16.648438 40.761719 L 12.859375 38.007812 L 17.542969 38.007812 L 13.753906 40.761719 Z M 15.199219 36.308594 "/>
<path style=" stroke:none;fill-rule:nonzero;fill:rgb(100%,100%,100%);fill-opacity:1;" d="M 20.265625 6.152344 L 21.714844 10.605469 L 17.925781 7.855469 L 22.609375 7.855469 L 18.820312 10.605469 Z M 20.265625 6.152344 "/>
<path style=" stroke:none;fill-rule:nonzero;fill:rgb(100%,100%,100%);fill-opacity:1;" d="M 20.265625 14.769531 L 21.714844 19.222656 L 17.925781 16.46875 L 22.609375 16.46875 L 18.820312 19.222656 Z M 20.265625 14.769531 "/>
<path style=" stroke:none;fill-rule:nonzero;fill:rgb(100%,100%,100%);fill-opacity:1;" d="M 20.265625 23.382812 L 21.714844 27.835938 L 17.925781 25.085938 L 22.609375 25.085938 L 18.820312 27.835938 Z M 20.265625 23.382812 "/>
<path style=" stroke:none;fill-rule:nonzero;fill:rgb(100%,100%,100%);fill-opacity:1;" d="M 20.265625 32 L 21.714844 36.453125 L 17.925781 33.699219 L 22.609375 33.699219 L 18.820312 36.453125 Z M 20.265625 32 "/>
<path style=" stroke:none;fill-rule:nonzero;fill:rgb(100%,100%,100%);fill-opacity:1;" d="M 25.332031 1.847656 L 26.78125 6.300781 L 22.992188 3.546875 L 27.675781 3.546875 L 23.886719 6.300781 Z M 25.332031 1.847656 "/>
<path style=" stroke:none;fill-rule:nonzero;fill:rgb(100%,100%,100%);fill-opacity:1;" d="M 25.332031 10.460938 L 26.78125 14.914062 L 22.992188 12.164062 L 27.675781 12.164062 L 23.886719 14.914062 Z M 25.332031 10.460938 "/>
<path style=" stroke:none;fill-rule:nonzero;fill:rgb(100%,100%,100%);fill-opacity:1;" d="M 25.332031 19.078125 L 26.78125 23.53125 L 22.992188 20.777344 L 27.675781 20.777344 L 23.886719 23.53125 Z M 25.332031 19.078125 "/>
<path style=" stroke:none;fill-rule:nonzero;fill:rgb(100%,100%,100%);fill-opacity:1;" d="M 25.332031 27.691406 L 26.78125 32.144531 L 22.992188 29.394531 L 27.675781 29.394531 L 23.886719 32.144531 Z M 25.332031 27.691406 "/>
<path style=" stroke:none;fill-rule:nonzero;fill:rgb(100%,100%,100%);fill-opacity:1;" d="M 25.332031 36.308594 L 26.78125 40.761719 L 22.992188 38.007812 L 27.675781 38.007812 L 23.886719 40.761719 Z M 25.332031 36.308594 "/>
<path style=" stroke:none;fill-rule:nonzero;fill:rgb(100%,100%,100%);fill-opacity:1;" d="M 30.398438 6.152344 L 31.847656 10.605469 L 28.058594 7.855469 L 32.742188 7.855469 L 28.953125 10.605469 Z M 30.398438 6.152344 "/>
<path style=" stroke:none;fill-rule:nonzero;fill:rgb(100%,100%,100%);fill-opacity:1;" d="M 30.398438 14.769531 L 31.847656 19.222656 L 28.058594 16.46875 L 32.742188 16.46875 L 28.953125 19.222656 Z M 30.398438 14.769531 "/>
<path style=" stroke:none;fill-rule:nonzero;fill:rgb(100%,100%,100%);fill-opacity:1;" d="M 30.398438 23.382812 L 31.847656 27.835938 L 28.058594 25.085938 L 32.742188 25.085938 L 28.953125 27.835938 Z M 30.398438 23.382812 "/>
<path style=" stroke:none;fill-rule:nonzero;fill:rgb(100%,100%,100%);fill-opacity:1;" d="M 30.398438 32 L 31.847656 36.453125 L 28.058594 33.699219 L 32.742188 33.699219 L 28.953125 36.453125 Z M 30.398438 32 "/>
<path style=" stroke:none;fill-rule:nonzero;fill:rgb(100%,100%,100%);fill-opacity:1;" d="M 35.464844 1.847656 L 36.914062 6.300781 L 33.125 3.546875 L 37.808594 3.546875 L 34.019531 6.300781 Z M 35.464844 1.847656 "/>
<path style=" stroke:none;fill-rule:nonzero;fill:rgb(100%,100%,100%);fill-opacity:1;" d="M 35.464844 10.460938 L 36.914062 14.914062 L 33.125 12.164062 L 37.808594 12.164062 L 34.019531 14.914062 Z M 35.464844 10.460938 "/>
<path style=" stroke:none;fill-rule:nonzero;fill:rgb(100%,100%,100%);fill-opacity:1;" d="M 35.464844 19.078125 L 36.914062 23.53125 L 33.125 20.777344 L 37.808594 20.777344 L 34.019531 23.53125 Z M 35.464844 19.078125 "/>
<path style=" stroke:none;fill-rule:nonzero;fill:rgb(100%,100%,100%);fill-opacity:1;" d="M 35.464844 27.691406 L 36.914062 32.144531 L 33.125 29.394531 L 37.808594 29.394531 L 34.019531 32.144531 Z M 35.464844 27.691406 "/>
<path style=" stroke:none;fill-rule:nonzero;fill:rgb(100%,100%,100%);fill-opacity:1;" d="M 35.464844 36.308594 L 36.914062 40.761719 L 33.125 38.007812 L 37.808594 38.007812 L 34.019531 40.761719 Z M 35.464844 36.308594 "/>
<path style=" stroke:none;fill-rule:nonzero;fill:rgb(100%,100%,100%);fill-opacity:1;" d="M 40.535156 6.152344 L 41.980469 10.605469 L 38.191406 7.855469 L 42.875 7.855469 L 39.085938 10.605469 Z M 40.535156 6.152344 "/>
<path style=" stroke:none;fill-rule:nonzero;fill:rgb(100%,100%,100%);fill-opacity:1;" d="M 40.535156 14.769531 L 41.980469 19.222656 L 38.191406 16.46875 L 42.875 16.46875 L 39.085938 19.222656 Z M 40.535156 14.769531 "/>
<path style=" stroke:none;fill-rule:nonzero;fill:rgb(100%,100%,100%);fill-opacity:1;" d="M 40.535156 23.382812 L 41.980469 27.835938 L 38.191406 25.085938 L 42.875 25.085938 L 39.085938 27.835938 Z M 40.535156 23.382812 "/>
<path style=" stroke:none;fill-rule:nonzero;fill:rgb(100%,100%,100%);fill-opacity:1;" d="M 40.535156 32 L 41.980469 36.453125 L 38.191406 33.699219 L 42.875 33.699219 L 39.085938 36.453125 Z M 40.535156 32 "/>
<path style=" stroke:none;fill-rule:nonzero;fill:rgb(100%,100%,100%);fill-opacity:1;" d="M 45.601562 1.847656 L 47.046875 6.300781 L 43.257812 3.546875 L 47.941406 3.546875 L 44.152344 6.300781 Z M 45.601562 1.847656 "/>
<path style=" stroke:none;fill-rule:nonzero;fill:rgb(100%,100%,100%);fill-opacity:1;" d="M 45.601562 10.460938 L 47.046875 14.914062 L 43.257812 12.164062 L 47.941406 12.164062 L 44.152344 14.914062 Z M 45.601562 10.460938 "/>
<path style=" stroke:none;fill-rule:nonzero;fill:rgb(100%,100%,100%);fill-opacity:1;" d="M 45.601562 19.078125 L 47.046875 23.53125 L 43.257812 20.777344 L 47.941406 20.777344 L 44.152344 23.53125 Z M 45.601562 19.078125 "/>
<path style=" stroke:none;fill-rule:nonzero;fill:rgb(100%,100%,100%);fill-opacity:1;" d="M 45.601562 27.691406 L 47.046875 32.144531 L 43.257812 29.394531 L 47.941406 29.394531 L 44.152344 32.144531 Z M 45.601562 27.691406 "/>
<path style=" stroke:none;fill-rule:nonzero;fill:rgb(100%,100%,100%);fill-opacity:1;" d="M 45.601562 36.308594 L 47.046875 40.761719 L 43.257812 38.007812 L 47.941406 38.007812 L 44.152344 40.761719 Z M 45.601562 36.308594 "/>
<path style=" stroke:none;fill-rule:nonzero;fill:rgb(100%,100%,100%);fill-opacity:1;" d="M 50.667969 6.152344 L 52.113281 10.605469 L 48.324219 7.855469 L 53.007812 7.855469 L 49.21875 10.605469 Z M 50.667969 6.152344 "/>
<path style=" stroke:none;fill-rule:nonzero;fill:rgb(100%,100%,100%);fill-opacity:1;" d="M 50.667969 14.769531 L 52.113281 19.222656 L 48.324219 16.46875 L 53.007812 16.46875 L 49.21875 19.222656 Z M 50.667969 14.769531 "/>
<path style=" stroke:none;fill-rule:nonzero;fill:rgb(100%,100%,100%);fill-opacity:1;" d="M 50.667969 23.382812 L 52.113281 27.835938 L 48.324219 25.085938 L 53.007812 25.085938 L 49.21875 27.835938 Z M 50.667969 23.382812 "/>
<path style=" stroke:none;fill-rule:nonzero;fill:rgb(100%,100%,100%);fill-opacity:1;" d="M 50.667969 32 L 52.113281 36.453125 L 48.324219 33.699219 L 53.007812 33.699219 L 49.21875 36.453125 Z M 50.667969 32 "/>
<path style=" stroke:none;fill-rule:nonzero;fill:rgb(100%,100%,100%);fill-opacity:1;" d="M 55.734375 1.847656 L 57.179688 6.300781 L 53.390625 3.546875 L 58.074219 3.546875 L 54.285156 6.300781 Z M 55.734375 1.847656 "/>
<path style=" stroke:none;fill-rule:nonzero;fill:rgb(100%,100%,100%);fill-opacity:1;" d="M 55.734375 10.460938 L 57.179688 14.914062 L 53.390625 12.164062 L 58.074219 12.164062 L 54.285156 14.914062 Z M 55.734375 10.460938 "/>
<path style=" stroke:none;fill-rule:nonzero;fill:rgb(100%,100%,100%);fill-opacity:1;" d="M 55.734375 19.078125 L 57.179688 23.53125 L 53.390625 20.777344 L 58.074219 20.777344 L 54.285156 23.53125 Z M 55.734375 19.078125 "/>
<path style=" stroke:none;fill-rule:nonzero;fill:rgb(100%,100%,100%);fill-opacity:1;" d="M 55.734375 27.691406 L 57.179688 32.144531 L 53.390625 29.394531 L 58.074219 29.394531 L 54.285156 32.144531 Z M 55.734375 27.691406 "/>
<path style=" stroke:none;fill-rule:nonzero;fill:rgb(100%,100%,100%);fill-opacity:1;" d="M 55.734375 36.308594 L 57.179688 40.761719 L 53.390625 38.007812 L 58.074219 38.007812 L 54.285156 40.761719 Z M 55.734375 36.308594 "/>
</g>
</svg>
