<?xml version="1.0" encoding="UTF-8"?>
<svg xmlns="http://www.w3.org/2000/svg" xmlns:xlink="http://www.w3.org/1999/xlink" width="152px" height="80px" viewBox="0 0 151 80" version="1.1">
<defs>
<clipPath id="clip1">
  <path d="M 0 0 L 0 80 L 70.464844 47.15625 L 151 47.15625 L 151 32.84375 L 70.464844 32.84375 Z M 0 0 "/>
</clipPath>
</defs>
<g id="surface1">
<rect x="0" y="0" width="151" height="80" style="fill:rgb(0%,58.431373%,26.27451%);fill-opacity:1;stroke:none;"/>
<path style=" stroke:none;fill-rule:nonzero;fill:rgb(82.352941%,6.27451%,20.392157%);fill-opacity:1;" d="M 0 0 L 151 0 L 151 40 L 0 40 Z M 0 0 "/>
<g clip-path="url(#clip1)" clip-rule="nonzero">
<path style="fill-rule:nonzero;fill:rgb(0%,0%,0%);fill-opacity:1;stroke-width:110;stroke-linecap:butt;stroke-linejoin:miter;stroke:rgb(99.215686%,80.784314%,7.058824%);stroke-opacity:1;stroke-miterlimit:4;" d="M 0 0 L 419.989135 195.009766 L 900 195.009766 L 900 279.990234 L 419.989135 279.990234 L 0 475 " transform="matrix(0.167778,0,0,0.168421,0,0)"/>
<path style="fill:none;stroke-width:60;stroke-linecap:butt;stroke-linejoin:miter;stroke:rgb(0%,0%,0%);stroke-opacity:1;stroke-miterlimit:4;" d="M 0 0 L 419.989135 195.009766 L 900 195.009766 M 900 279.990234 L 419.989135 279.990234 L 0 475 " transform="matrix(0.167778,0,0,0.168421,0,0)"/>
</g>
<path style=" stroke:none;fill-rule:nonzero;fill:rgb(99.215686%,80.784314%,7.058824%);fill-opacity:1;" d="M 17.929688 47.652344 L 17.929688 52.210938 C 21.878906 52.210938 29.632812 49.171875 29.632812 39.390625 C 29.632812 29.605469 21.363281 27.789062 18.890625 27.789062 C 16.417969 27.789062 8.773438 29.570312 8.773438 37.574219 C 8.773438 45.578125 16.269531 46.320312 17.746094 46.320312 C 19.222656 46.320312 24.757812 44.984375 24.132812 38.980469 C 24.132812 40.6875 22.210938 44.28125 18.1875 44.28125 C 14.164062 44.28125 11.65625 41.277344 11.65625 38.3125 C 11.65625 35.347656 14.089844 31.382812 18.335938 31.382812 C 22.582031 31.382812 25.683594 35.164062 25.683594 38.980469 C 25.683594 42.796875 22.691406 47.652344 17.929688 47.652344 Z M 17.929688 47.652344 "/>
<path style="fill-rule:nonzero;fill:rgb(99.215686%,80.784314%,7.058824%);fill-opacity:1;stroke-width:0.833333;stroke-linecap:butt;stroke-linejoin:miter;stroke:rgb(99.215686%,80.784314%,7.058824%);stroke-opacity:1;stroke-miterlimit:4;" d="M 86.237583 247.705078 L 87.63452 248.609619 C 87.63452 248.609619 98.786734 223.189697 128.727752 205.12207 C 124.93274 207.186279 104.886693 217.182617 86.237583 247.705078 Z M 86.237583 247.705078 " transform="matrix(0.167778,0,0,0.168421,0,0)"/>
<path style=" stroke:none;fill-rule:nonzero;fill:rgb(99.215686%,80.784314%,7.058824%);fill-opacity:1;" d="M 14.953125 40.980469 C 14.953125 40.980469 14.371094 39.785156 14.882812 39.257812 C 15.398438 38.730469 15.160156 40.664062 15.160156 40.664062 L 15.382812 40.34375 C 15.382812 40.34375 15.035156 38.882812 15.425781 38.578125 C 15.8125 38.273438 15.617188 39.980469 15.617188 39.980469 L 15.851562 39.675781 C 15.851562 39.675781 15.605469 38.257812 15.976562 37.996094 C 16.351562 37.730469 16.117188 39.328125 16.117188 39.328125 L 16.394531 39.007812 C 16.394531 39.007812 16.1875 37.660156 16.644531 37.339844 C 17.097656 37.023438 16.699219 38.621094 16.699219 38.621094 L 17.003906 38.285156 C 17.003906 38.285156 16.863281 37.050781 17.25 36.769531 C 17.640625 36.492188 17.308594 37.9375 17.308594 37.9375 L 17.585938 37.648438 C 17.585938 37.648438 17.5 36.492188 17.875 36.230469 C 18.25 35.964844 17.902344 37.328125 17.902344 37.328125 L 18.191406 37.050781 C 18.191406 37.050781 18.125 35.894531 18.59375 35.671875 C 19.066406 35.453125 18.511719 36.757812 18.511719 36.757812 L 18.828125 36.480469 C 18.828125 36.480469 18.925781 35.132812 19.328125 35.007812 C 19.730469 34.882812 19.148438 36.203125 19.148438 36.203125 L 19.4375 35.964844 C 19.4375 35.964844 19.589844 34.8125 20.035156 34.671875 C 20.476562 34.535156 19.757812 35.730469 19.757812 35.730469 L 20.046875 35.507812 C 20.046875 35.507812 20.367188 34.351562 20.78125 34.226562 C 21.195312 34.101562 20.351562 35.3125 20.351562 35.3125 L 20.628906 35.117188 C 20.628906 35.117188 21.085938 34.074219 21.460938 34.007812 C 21.832031 33.9375 21.042969 34.867188 21.042969 34.867188 L 21.390625 34.660156 C 21.390625 34.660156 21.984375 33.574219 22.195312 33.910156 C 22.402344 34.242188 21.363281 34.730469 21.363281 34.730469 L 21.015625 34.921875 C 21.015625 34.921875 22.277344 34.324219 22.429688 34.632812 C 22.582031 34.9375 20.699219 35.132812 20.699219 35.132812 L 20.394531 35.339844 C 20.394531 35.339844 21.652344 34.992188 21.5 35.3125 C 21.347656 35.632812 20.105469 35.5625 20.105469 35.5625 L 19.8125 35.769531 C 19.8125 35.769531 21.074219 35.464844 20.90625 35.757812 C 20.742188 36.046875 19.507812 36.019531 19.507812 36.019531 L 19.203125 36.269531 C 19.203125 36.269531 20.4375 35.953125 20.257812 36.328125 C 20.074219 36.703125 18.675781 36.6875 18.675781 36.6875 L 18.332031 37.007812 C 18.332031 37.007812 19.632812 36.5625 19.523438 36.910156 C 19.410156 37.257812 17.929688 37.4375 17.929688 37.4375 L 17.597656 37.773438 C 17.597656 37.773438 18.996094 37.300781 18.582031 37.730469 C 18.164062 38.160156 17.15625 38.273438 17.15625 38.273438 L 16.753906 38.757812 C 16.753906 38.757812 18.136719 37.925781 17.945312 38.398438 C 17.75 38.871094 16.394531 39.191406 16.394531 39.191406 L 16.117188 39.523438 C 16.117188 39.523438 17.363281 38.800781 17.238281 39.203125 C 17.113281 39.605469 15.785156 40.035156 15.785156 40.035156 L 15.5625 40.34375 C 15.5625 40.34375 17.03125 39.46875 16.90625 39.910156 C 16.78125 40.355469 15.382812 40.675781 15.382812 40.675781 L 15.203125 40.953125 C 15.203125 40.953125 16.558594 40.175781 16.574219 40.550781 C 16.585938 40.925781 14.980469 41.300781 14.980469 41.300781 Z M 14.953125 40.980469 "/>
<path style="fill-rule:nonzero;fill:rgb(99.215686%,80.784314%,7.058824%);fill-opacity:1;stroke-width:0.833333;stroke-linecap:butt;stroke-linejoin:miter;stroke:rgb(99.215686%,80.784314%,7.058824%);stroke-opacity:1;stroke-miterlimit:4;" d="M 86.243274 247.705078 L 87.640211 248.609619 C 87.640211 248.609619 98.792425 223.189697 128.733444 205.12207 C 124.938431 207.186279 104.892384 217.182617 86.243274 247.705078 Z M 86.243274 247.705078 " transform="matrix(-0.167778,0,0,0.168421,36.911111,0)"/>
<path style=" stroke:none;fill-rule:nonzero;fill:rgb(99.215686%,80.784314%,7.058824%);fill-opacity:1;" d="M 21.957031 40.980469 C 21.957031 40.980469 22.539062 39.785156 22.027344 39.257812 C 21.515625 38.730469 21.75 40.664062 21.75 40.664062 L 21.527344 40.34375 C 21.527344 40.34375 21.875 38.882812 21.488281 38.578125 C 21.097656 38.273438 21.292969 39.980469 21.292969 39.980469 L 21.058594 39.675781 C 21.058594 39.675781 21.308594 38.257812 20.933594 37.996094 C 20.558594 37.730469 20.792969 39.328125 20.792969 39.328125 L 20.519531 39.007812 C 20.519531 39.007812 20.726562 37.660156 20.269531 37.339844 C 19.8125 37.023438 20.214844 38.621094 20.214844 38.621094 L 19.910156 38.285156 C 19.910156 38.285156 20.046875 37.050781 19.660156 36.769531 C 19.273438 36.492188 19.605469 37.9375 19.605469 37.9375 L 19.328125 37.648438 C 19.328125 37.648438 19.410156 36.492188 19.035156 36.230469 C 18.664062 35.964844 19.007812 37.328125 19.007812 37.328125 L 18.71875 37.050781 C 18.71875 37.050781 18.789062 35.894531 18.316406 35.671875 C 17.847656 35.453125 18.398438 36.757812 18.398438 36.757812 L 18.082031 36.480469 C 18.082031 36.480469 17.984375 35.132812 17.582031 35.007812 C 17.179688 34.882812 17.761719 36.203125 17.761719 36.203125 L 17.472656 35.964844 C 17.472656 35.964844 17.320312 34.8125 16.875 34.671875 C 16.433594 34.535156 17.152344 35.730469 17.152344 35.730469 L 16.863281 35.507812 C 16.863281 35.507812 16.542969 34.351562 16.128906 34.226562 C 15.714844 34.101562 16.558594 35.3125 16.558594 35.3125 L 16.28125 35.117188 C 16.28125 35.117188 15.824219 34.074219 15.449219 34.007812 C 15.078125 33.9375 15.867188 34.867188 15.867188 34.867188 L 15.519531 34.660156 C 15.519531 34.660156 14.925781 33.574219 14.71875 33.910156 C 14.507812 34.242188 15.546875 34.730469 15.546875 34.730469 L 15.894531 34.921875 C 15.894531 34.921875 14.632812 34.324219 14.480469 34.632812 C 14.328125 34.9375 16.210938 35.132812 16.210938 35.132812 L 16.515625 35.339844 C 16.515625 35.339844 15.257812 34.992188 15.410156 35.3125 C 15.5625 35.632812 16.808594 35.5625 16.808594 35.5625 L 17.097656 35.769531 C 17.097656 35.769531 15.839844 35.464844 16.003906 35.757812 C 16.171875 36.046875 17.402344 36.019531 17.402344 36.019531 L 17.707031 36.269531 C 17.707031 36.269531 16.476562 35.953125 16.65625 36.328125 C 16.835938 36.703125 18.234375 36.6875 18.234375 36.6875 L 18.578125 37.007812 C 18.578125 37.007812 17.277344 36.5625 17.390625 36.910156 C 17.5 37.257812 18.980469 37.4375 18.980469 37.4375 L 19.3125 37.773438 C 19.3125 37.773438 17.914062 37.300781 18.332031 37.730469 C 18.746094 38.160156 19.757812 38.273438 19.757812 38.273438 L 20.15625 38.757812 C 20.15625 38.757812 18.773438 37.925781 18.96875 38.398438 C 19.160156 38.871094 20.519531 39.191406 20.519531 39.191406 L 20.792969 39.523438 C 20.792969 39.523438 19.546875 38.800781 19.671875 39.203125 C 19.796875 39.605469 21.125 40.035156 21.125 40.035156 L 21.347656 40.34375 C 21.347656 40.34375 19.882812 39.46875 20.003906 39.910156 C 20.128906 40.355469 21.527344 40.675781 21.527344 40.675781 L 21.707031 40.953125 C 21.707031 40.953125 20.351562 40.175781 20.335938 40.550781 C 20.324219 40.925781 21.929688 41.300781 21.929688 41.300781 Z M 21.957031 40.980469 "/>
</g>
</svg>
